<?xml version="1.0" standalone="no"?>
<!DOCTYPE svg PUBLIC "-//W3C//DTD SVG 20010904//EN"
 "http://www.w3.org/TR/2001/REC-SVG-20010904/DTD/svg10.dtd">
<svg version="1.0" xmlns="http://www.w3.org/2000/svg"
 width="476.000000pt" height="402.000000pt" viewBox="0 0 476.000000 402.000000"
 preserveAspectRatio="xMidYMid meet">

<g transform="translate(0.000000,402.000000) scale(0.100000,-0.100000)"
fill="#000000" stroke="none">
<path d="M0 2010 l0 -2010 2380 0 2380 0 0 2010 0 2010 -2380 0 -2380 0 0
-2010z m2620 1343 c0 -7 6 -13 13 -14 10 0 10 -2 0 -6 -15 -6 -18 -160 -4
-182 5 -8 35 -15 78 -18 l69 -5 79 96 c43 53 86 96 94 96 9 0 175 -38 370 -84
l354 -83 83 -158 c46 -86 85 -160 88 -163 13 -12 157 87 221 152 98 100 127
162 134 291 l6 100 51 -77 c69 -102 98 -190 98 -293 0 -105 -18 -154 -108
-300 l-74 -119 27 -36 c71 -89 98 -195 87 -339 -4 -47 -6 -102 -4 -121 1 -19
3 -129 3 -245 0 -152 -4 -221 -14 -248 -22 -65 -164 -321 -191 -345 -46 -43
-100 -62 -175 -62 -95 0 -268 34 -333 66 -29 14 -56 23 -60 20 -6 -6 1 -33 53
-220 l24 -88 -42 6 c-160 26 -386 57 -491 67 l-124 13 -152 -144 c-83 -79
-158 -156 -165 -170 -9 -17 -11 -39 -6 -65 4 -22 4 -53 0 -70 -7 -23 -3 -39
17 -73 14 -24 23 -46 20 -49 -3 -3 -26 0 -51 7 -36 10 -58 10 -98 1 -36 -8
-62 -8 -87 -1 -27 8 -45 6 -82 -7 -26 -9 -50 -14 -54 -11 -3 3 2 20 11 37 12
25 14 47 9 107 -4 42 -12 81 -18 88 -18 19 -36 55 -36 69 0 8 -63 76 -141 151
l-140 138 -72 -7 c-172 -15 -353 -38 -501 -61 -87 -14 -161 -22 -164 -20 -3 3
13 70 35 148 22 79 39 144 38 146 -2 2 -21 -6 -42 -16 -50 -26 -176 -52 -281
-59 -66 -5 -96 -2 -143 13 l-60 19 -104 153 c-58 84 -113 167 -122 185 -16 29
-18 72 -21 420 -2 328 0 397 13 442 18 62 63 126 122 171 l41 31 -51 79 c-82
129 -100 177 -105 276 -3 68 0 101 16 155 22 71 77 172 116 211 l22 23 -4 -64
c-5 -74 16 -158 56 -227 39 -67 138 -159 228 -212 132 -77 115 -86 219 113
l90 173 60 13 c33 7 197 42 365 77 l305 65 26 -25 c15 -14 29 -21 33 -16 3 6
24 8 45 5 28 -4 52 1 83 16 32 15 64 21 114 22 38 0 116 6 174 13 l105 12 -3
34 c-2 33 -2 34 13 16 8 -11 15 -26 15 -33z m467 -2385 c-3 -7 -5 -2 -5 12 0
14 2 19 5 13 2 -7 2 -19 0 -25z m-10 -110 c-3 -7 -5 -2 -5 12 0 14 2 19 5 13
2 -7 2 -19 0 -25z m-997 -163 c13 -14 21 -25 18 -25 -2 0 -15 11 -28 25 -13
14 -21 25 -18 25 2 0 15 -11 28 -25z"/>
<path d="M2535 3315 c-5 -2 -23 -6 -38 -9 -39 -9 -62 -60 -53 -120 l7 -46 75
0 74 0 0 90 0 90 -27 -1 c-16 0 -32 -2 -38 -4z"/>
<path d="M650 3112 c-20 -86 -9 -195 28 -272 30 -63 100 -157 128 -173 8 -5
38 9 83 39 l70 46 -57 43 c-119 88 -195 192 -223 305 l-16 65 -13 -53z"/>
<path d="M4245 3125 c-31 -137 -96 -233 -227 -330 l-57 -43 71 -47 70 -47 35
34 c55 52 109 141 128 213 19 68 17 196 -3 232 -9 16 -11 14 -17 -12z"/>
<path d="M3300 3007 c-56 -28 -48 -110 14 -130 68 -22 117 77 60 122 -31 24
-40 25 -74 8z"/>
<path d="M1563 2951 c-57 -7 -54 -5 -71 -44 -14 -33 -26 -28 143 -67 129 -29
154 -28 141 5 -5 13 -18 16 -68 13 -62 -3 -63 -3 -60 22 10 85 12 83 -85 71z"/>
<path d="M1465 2840 c-3 -5 -30 -10 -60 -10 -30 0 -65 -4 -79 -10 -25 -9 -66
-75 -66 -105 0 -17 3 -17 76 -15 29 1 55 -3 58 -9 4 -6 0 -32 -8 -58 -8 -27
-22 -88 -31 -138 -10 -49 -18 -91 -20 -93 -3 -3 -89 86 -123 128 l-21 25 -26
-26 c-23 -22 -25 -30 -16 -47 16 -31 26 -194 13 -218 -7 -14 -8 -33 -1 -60 5
-21 9 -102 9 -179 l-1 -140 34 -33 c28 -27 39 -32 61 -26 15 3 31 16 35 28 4
11 41 181 81 376 40 195 78 360 84 367 6 6 52 14 102 18 l91 7 11 -44 c6 -23
45 -203 88 -398 68 -315 83 -369 104 -370 3 0 22 56 43 124 l37 123 0 291 0
291 33 6 c17 3 63 5 102 3 l70 -3 20 -90 21 -90 37 -3 c44 -4 44 -4 17 113
-25 106 -32 120 -72 141 -25 13 -49 15 -135 9 -96 -7 -108 -10 -136 -35 -28
-25 -31 -34 -36 -106 l-6 -79 -74 85 c-91 104 -108 114 -173 106 -34 -5 -48
-4 -43 4 3 5 33 10 65 10 77 0 105 12 118 49 6 17 9 31 8 31 -2 0 -63 14 -136
30 -149 34 -147 34 -155 20z"/>
<path d="M3116 2819 c-30 -24 -35 -72 -10 -100 15 -17 13 -17 -40 -12 -42 4
-61 2 -81 -11 -24 -16 -27 -15 -53 4 -35 26 -198 31 -235 7 -21 -13 -25 -13
-46 4 -15 13 -39 19 -70 19 -44 0 -48 -2 -59 -33 -7 -18 -12 -36 -12 -40 0 -3
24 -7 53 -9 l52 -3 0 -465 0 -465 -77 -3 -78 -3 0 277 c0 153 -2 275 -5 273
-2 -3 -29 -117 -60 -254 -30 -138 -57 -260 -60 -273 -5 -21 -10 -23 -58 -20
l-51 3 -61 270 -60 270 -5 -275 -5 -275 -77 -3 -78 -3 -1 128 -1 128 -27 -85
c-24 -75 -30 -85 -49 -83 -20 3 -21 -1 -15 -25 16 -64 14 -66 -66 -76 -54 -6
-75 -5 -81 4 -4 6 -13 42 -19 80 l-13 68 -46 11 c-27 6 -73 7 -107 3 l-60 -7
-16 -80 c-8 -44 -18 -87 -21 -95 -3 -8 6 -27 20 -42 36 -39 18 -48 -21 -11
-31 30 -34 31 -92 23 -33 -5 -61 -7 -64 -5 -2 3 1 28 7 57 10 49 9 55 -12 76
-22 22 -25 23 -58 9 -29 -12 -37 -22 -42 -51 -4 -20 -21 -52 -38 -72 -31 -35
-31 -35 -15 -70 21 -43 0 -48 -24 -6 l-16 28 -114 -22 c-136 -28 -180 -29
-220 -8 -56 29 -59 48 -58 431 1 400 3 412 84 471 54 40 299 77 344 52 14 -7
24 -3 46 20 l27 28 -28 15 c-16 8 -48 18 -70 21 -57 10 -275 -30 -335 -60 -55
-27 -110 -88 -129 -141 -17 -49 -26 -635 -12 -742 10 -69 15 -80 109 -218 55
-82 111 -154 127 -164 49 -30 96 -32 222 -9 134 25 165 35 211 74 25 21 33 24
40 13 11 -18 47 -37 71 -37 19 0 17 -8 -19 -132 -21 -73 -37 -133 -36 -134 1
-1 71 9 154 22 328 49 482 59 923 59 441 0 590 -10 923 -58 86 -13 157 -21
157 -18 0 17 -64 221 -69 221 -3 0 -12 -9 -19 -20 -10 -17 -10 -30 3 -72 20
-69 20 -81 -5 -73 -10 3 -43 8 -72 11 -29 2 -97 11 -152 19 -214 30 -406 40
-776 40 -222 0 -430 -6 -510 -13 -158 -15 -447 -50 -472 -58 -10 -3 -18 -1
-18 5 0 12 99 333 104 339 6 6 189 28 356 44 190 17 915 18 1095 0 173 -16
315 -32 342 -38 18 -3 28 -23 54 -104 31 -94 34 -99 51 -83 10 9 18 24 18 34
0 13 7 16 27 14 21 -2 36 6 59 31 l32 33 15 -22 c8 -12 32 -32 55 -45 l40 -22
17 70 c9 38 19 70 21 70 2 0 64 -30 137 -66 l132 -67 108 114 c144 152 169
202 141 281 -18 51 -17 73 1 33 12 -27 13 -13 14 138 1 130 -2 174 -14 197
-13 25 -13 32 0 57 14 27 21 103 9 103 -3 0 -15 -5 -27 -11 -21 -10 -21 -10
-3 5 11 9 24 16 29 16 16 0 0 135 -21 182 -21 48 -88 113 -136 133 -17 7 -84
23 -149 35 -141 27 -194 23 -253 -19 l-42 -29 -6 29 c-10 53 -46 75 -142 87
-73 10 -92 9 -119 -4 -35 -16 -55 -49 -56 -92 0 -20 -6 -12 -21 32 -14 40 -29
63 -47 74 l-27 15 23 23 c30 30 29 69 -2 99 -30 30 -54 31 -89 4z m-225 -185
c5 -3 9 -214 9 -470 l0 -464 -78 0 -79 0 -6 197 c-9 253 -9 716 0 738 5 15 16
17 76 11 38 -3 73 -9 78 -12z m280 -25 c4 -7 48 -128 96 -269 l88 -255 3 258
2 259 63 -7 c34 -3 70 -9 80 -11 16 -5 17 -36 17 -476 l0 -471 -72 8 c-40 3
-76 12 -80 18 -4 6 -46 126 -95 265 l-88 255 -5 -254 -5 -254 -70 3 c-38 2
-74 8 -79 12 -10 10 -22 900 -12 925 5 15 17 17 77 13 44 -4 74 -11 80 -19z
m738 -88 c54 -11 112 -26 128 -34 64 -33 93 -95 93 -197 0 -38 4 -70 9 -70 5
0 4 -11 -2 -24 -8 -17 -22 -26 -44 -28 -18 -2 -33 -1 -33 3 0 4 -18 10 -40 14
l-40 7 0 64 c0 50 -4 68 -19 83 -20 20 -89 35 -132 29 l-24 -3 -3 -297 -2
-297 23 -15 c34 -23 137 -33 148 -15 5 8 9 51 9 96 0 82 0 83 -27 89 -16 3
-34 7 -40 10 -9 2 -13 27 -13 79 0 91 -9 88 158 50 16 -4 22 -1 23 12 1 16 2
16 6 1 2 -9 13 -20 24 -23 16 -5 19 -16 19 -59 0 -30 11 -84 25 -126 14 -41
24 -78 22 -83 -1 -5 -12 17 -22 49 l-20 59 -5 -132 c-4 -113 -8 -136 -26 -160
-32 -43 -76 -49 -196 -29 -175 29 -217 50 -249 120 -17 38 -19 72 -19 401 0
343 1 362 20 393 35 57 87 64 249 33z"/>
<path d="M3485 2815 c-39 -38 -27 -93 24 -115 26 -11 35 -10 56 4 50 33 49
102 -1 125 -37 16 -52 14 -79 -14z"/>
<path d="M2384 2718 c-12 -5 -27 -20 -34 -32 -15 -29 -60 -218 -54 -228 6 -9
74 -11 74 -3 0 28 44 191 53 197 7 4 24 8 38 8 21 0 28 7 36 35 l11 35 -51 -1
c-29 0 -62 -5 -73 -11z"/>
<path d="M2196 2415 c4 -15 24 -103 44 -194 23 -101 39 -158 43 -146 3 11 22
92 42 179 39 175 38 177 -25 175 -19 -1 -52 2 -73 6 -38 7 -38 7 -31 -20z"/>
<path d="M915 2368 c-89 -17 -85 -1 -85 -334 0 -194 4 -295 11 -299 5 -4 37
-4 71 0 87 10 98 24 98 131 l0 86 -37 -4 -38 -3 -3 76 c-3 88 -14 79 123 99
44 7 83 14 86 16 3 2 2 27 -4 55 l-10 51 -59 -6 -58 -7 0 65 c0 54 -3 67 -19
76 -11 5 -21 9 -23 9 -2 -1 -25 -6 -53 -11z"/>
<path d="M1551 2370 c-1 -8 -16 -98 -35 -199 l-33 -184 70 7 c39 4 73 8 75 10
5 6 -57 336 -68 361 -6 14 -9 15 -9 5z"/>
<path d="M1170 1820 c0 -28 2 -30 21 -20 20 11 20 12 3 31 -23 25 -24 24 -24
-11z"/>
<path d="M1267 1804 c-8 -8 1 -24 14 -24 5 0 9 7 9 15 0 15 -12 20 -23 9z"/>
<path d="M4034 1399 l-91 -91 -130 66 -131 65 -18 -65 c-9 -35 -15 -66 -13
-69 2 -2 61 -14 131 -26 143 -25 181 -21 238 28 24 20 120 183 108 183 -2 0
-44 -41 -94 -91z"/>
<path d="M2183 1071 l-93 -6 175 -167 c96 -93 178 -168 183 -168 15 0 343 323
335 331 -11 10 -482 18 -600 10z"/>
</g>
</svg>
